<svg width="320" height="160" viewBox="0 0 320 160" fill="none" xmlns="http://www.w3.org/2000/svg">
  <path d="M30 90C30 76.7452 40.7452 66 54 66H74C78.4183 53.4835 90.3523 44.5 104.5 44.5C121.271 44.5 134.982 57.0959 135.928 73.6204H147.5C159.65 73.6204 169.5 83.4701 169.5 95.6204C169.5 107.771 159.65 117.62 147.5 117.62H60.5C43.103 117.62 29 103.517 29 86.1204" stroke="#B07344" stroke-width="3" stroke-linecap="round"/>
  <path d="M156 109C156 95.1929 167.193 84 181 84H198.5C202.169 73.3286 212.307 65.5 224.5 65.5C239.688 65.5 252 77.8122 252 93C252 94.3647 251.901 95.7064 251.709 97.019H263.5C275.374 97.019 285 106.645 285 118.519C285 130.393 275.374 140.019 263.5 140.019H190.5C171.998 140.019 157 125.021 157 106.519" stroke="#9F5B3A" stroke-width="3" stroke-linecap="round"/>
  <path d="M73 112.5H135" stroke="#C49263" stroke-width="3" stroke-linecap="round"/>
  <path d="M203 133H252" stroke="#C49263" stroke-width="3" stroke-linecap="round"/>
  <path d="M86 28C86 22.4772 90.4772 18 96 18H113C116.42 10.8522 123.706 6 132.125 6C143.87 6 153.5 15.6304 153.5 27.375C153.5 28.2639 153.445 29.1398 153.339 30H164.5C172.508 30 179 36.4919 179 44.5C179 52.5081 172.508 59 164.5 59H112.5C97.3122 59 85 46.6878 85 31.5" stroke="#B07344" stroke-width="2.5" stroke-linecap="round"/>
</svg>
